<?xml version="1.0" encoding="utf-8"?>
<!-- Generator: Adobe Illustrator 17.0.0, SVG Export Plug-In . SVG Version: 6.00 Build 0)  -->
<!DOCTYPE svg PUBLIC "-//W3C//DTD SVG 1.1//EN" "http://www.w3.org/Graphics/SVG/1.1/DTD/svg11.dtd">
<svg version="1.1" id="Capa_1" xmlns="http://www.w3.org/2000/svg" xmlns:xlink="http://www.w3.org/1999/xlink" x="0px" y="0px"
	 width="52px" height="52px" viewBox="0 0 52 52" enable-background="new 0 0 52 52" xml:space="preserve">
<path d="M47.101,11.853c-1.073-0.352-1.94-2.232-1.506-3.265c0.364-0.863,0.769-1.058,0.084-1.743
	c-0.546-0.538-1.103,0.204-1.542,0.441c-0.189,0.104-0.47,0.174-0.606,0.201c-0.804,0.158-2.734-0.503-2.734-2.363
	c0-0.49-0.201-0.682-0.724-0.68c-0.507,0.001-0.802,0.088-0.929,0.662c-0.113,0.511-0.239,1.149-0.565,1.442
	c-0.572,0.515-1.313,0.965-2.228,0.938c-0.395-0.012-0.889-0.396-1.312-0.663c-0.446-0.282-0.782-0.398-1.245,0.061
	c-0.48,0.477-0.279,0.805-0.013,1.232c0.264,0.424,0.716,0.924,0.651,1.317c-0.125,0.754-0.459,1.529-0.907,2.149
	c-0.24,0.333-0.889,0.43-1.373,0.508c-0.575,0.094-0.701,0.361-0.705,0.903c-0.005,0.579,0.214,0.79,0.754,0.886
	c0.459,0.08,1.093,0.155,1.302,0.466c0.443,0.663,0.773,1.455,0.921,2.238c0.068,0.362-0.364,0.85-0.632,1.237
	c-0.317,0.46-0.353,0.783,0.089,1.232c0.475,0.481,0.819,0.423,1.301,0.072c0.357-0.26,0.831-0.663,1.165-0.591
	c0.78,0.168,1.57,0.491,2.23,0.938c0.31,0.212,0.358,0.847,0.469,1.304c0.11,0.452,0.146,0.842,0.804,0.846
	c0.629,0.004,0.897-0.195,1.042-0.798c0.124-0.517,0.276-1.265,0.642-1.441c1.126-0.543,2.212-1.388,3.246-0.37
	c0.103,0.101,0.697,0.533,1.376-0.153c0.605-0.61,0.294-1.159-0.056-1.55c-1.054-1.178-0.196-3.434,0.869-3.404
	c1.094,0.029,1.465-0.152,1.465-1.067C48.433,11.886,47.489,11.98,47.101,11.853z M40.107,17.186
	c-2.138-0.01-3.854-1.757-3.844-3.913c0.011-2.122,1.782-3.857,3.92-3.841c2.087,0.016,3.82,1.782,3.814,3.889
	C43.99,15.466,42.25,17.195,40.107,17.186z"/>
<path d="M27.219,40.089c-1.074-0.353-1.94-2.233-1.505-3.265c0.364-0.864,0.768-1.059,0.084-1.743
	c-0.547-0.538-1.104,0.203-1.542,0.441c-0.189,0.103-0.47,0.173-0.606,0.2c-0.804,0.159-2.734-0.503-2.734-2.362
	c0-0.491-0.201-0.683-0.724-0.681c-0.507,0.002-0.801,0.089-0.928,0.662c-0.113,0.511-0.239,1.149-0.566,1.443
	c-0.573,0.514-1.313,0.964-2.228,0.937c-0.394-0.012-0.889-0.396-1.312-0.662c-0.446-0.283-0.783-0.398-1.245,0.06
	c-0.48,0.477-0.278,0.805-0.013,1.232c0.264,0.424,0.717,0.924,0.651,1.317c-0.126,0.754-0.459,1.529-0.908,2.15
	c-0.24,0.332-0.889,0.429-1.373,0.507c-0.575,0.094-0.701,0.361-0.705,0.903c-0.005,0.579,0.214,0.79,0.754,0.886
	c0.459,0.08,1.094,0.155,1.302,0.466c0.443,0.663,0.772,1.455,0.92,2.238c0.068,0.362-0.364,0.85-0.631,1.237
	c-0.318,0.46-0.354,0.783,0.089,1.233c0.474,0.48,0.82,0.422,1.3,0.071c0.356-0.259,0.831-0.663,1.165-0.591
	c0.781,0.168,1.571,0.491,2.23,0.939c0.311,0.211,0.358,0.846,0.469,1.303c0.11,0.452,0.146,0.842,0.804,0.846
	c0.628,0.004,0.897-0.195,1.042-0.798c0.124-0.517,0.275-1.265,0.642-1.441c1.126-0.543,2.212-1.388,3.245-0.37
	c0.103,0.101,0.698,0.533,1.377-0.152c0.605-0.611,0.294-1.16-0.056-1.551c-1.054-1.178-0.196-3.434,0.869-3.404
	c1.094,0.029,1.465-0.152,1.465-1.067C28.551,40.121,27.608,40.216,27.219,40.089z M20.225,45.421
	c-2.137-0.01-3.854-1.757-3.843-3.912c0.01-2.123,1.781-3.858,3.919-3.842c2.087,0.016,3.82,1.782,3.814,3.89
	C24.109,43.702,22.369,45.431,20.225,45.421z"/>
<path d="M30.041,15.804c-1.921-0.631-3.472-3.997-2.694-5.844c0.651-1.545,1.375-1.893,0.15-3.119
	c-0.979-0.963-1.975,0.364-2.76,0.79c-0.339,0.185-0.84,0.311-1.085,0.359c-1.439,0.284-4.893-0.9-4.893-4.229
	c0.001-0.879-0.36-1.221-1.296-1.218c-0.908,0.003-1.434,0.158-1.661,1.185c-0.203,0.914-0.428,2.058-1.012,2.583
	c-1.025,0.92-2.352,1.727-3.988,1.678C10.096,7.969,9.21,7.28,8.453,6.802C7.655,6.296,7.052,6.09,6.225,6.91
	C5.364,7.763,5.726,8.35,6.202,9.115c0.472,0.76,1.283,1.654,1.166,2.358c-0.225,1.349-0.821,2.736-1.624,3.848
	c-0.429,0.595-1.59,0.768-2.456,0.908c-1.029,0.167-1.255,0.646-1.263,1.616c-0.008,1.036,0.384,1.414,1.349,1.584
	c0.823,0.144,1.958,0.278,2.331,0.834c0.793,1.187,1.383,2.605,1.648,4.007c0.122,0.648-0.652,1.52-1.13,2.214
	c-0.569,0.824-0.633,1.401,0.159,2.207c0.849,0.86,1.466,0.755,2.327,0.129c0.64-0.465,1.488-1.188,2.085-1.059
	c1.397,0.301,2.811,0.879,3.991,1.681c0.556,0.379,0.641,1.515,0.839,2.332c0.197,0.81,0.26,1.506,1.439,1.514
	c1.125,0.008,1.605-0.349,1.864-1.428c0.221-0.924,0.494-2.263,1.147-2.579c2.017-0.972,3.96-2.483,5.809-0.663
	c0.184,0.182,1.248,0.955,2.464-0.273c1.082-1.093,0.526-2.075-0.1-2.774c-1.886-2.108-0.351-6.146,1.556-6.093
	c1.959,0.054,2.622-0.272,2.622-1.909C32.424,15.862,30.736,16.031,30.041,15.804z M17.523,25.347
	c-3.825-0.018-6.898-3.145-6.879-7.003c0.018-3.798,3.188-6.904,7.015-6.874c3.736,0.027,6.837,3.189,6.827,6.96
	C24.474,22.27,21.36,25.364,17.523,25.347z"/>
</svg>
